name Walk9.mot
datacolumns 19
datarows 17
range 2.25000000 2.33000000
endheader

                time	   L_ground_force_vx	   L_ground_force_vy	   L_ground_force_vz	   L_ground_force_px	   L_ground_force_py	   L_ground_force_pz	   R_ground_force_vx	   R_ground_force_vy	   R_ground_force_vz	   R_ground_force_px	   R_ground_force_py	   R_ground_force_pz	   L_ground_torque_x	   L_ground_torque_y	   L_ground_torque_z	   R_ground_torque_x	   R_ground_torque_y	   R_ground_torque_z	
          2.25000000	          0.00000000	          0.00000000	          0.00000000	         -0.00000000	          0.00000000	         -0.00000000	         -0.13095268	         -0.91298034	         -0.07599589	         -0.01360118	          0.00000000	         -0.00297604	          0.00000000	          0.00000000	          0.00000000	          0.00000000	         -0.00534483	          0.00000000	
          2.25500000	          0.00000000	          0.00000000	         -0.00000000	         -0.00000000	          0.00000000	         -0.00000000	         -0.02480218	         -0.22298559	         -0.02010406	         -0.00604027	          0.00000000	         -0.00130986	          0.00000000	          0.00000000	          0.00000000	          0.00000000	         -0.00233263	          0.00000000	
          2.26000000	         -0.00000000	         -0.00000000	         -0.00000000	         -0.00000000	          0.00000000	         -0.00000000	          0.00722600	          0.03627956	          0.00258543	         -0.00022498	          0.00000000	         -0.00004590	          0.00000000	         -0.00000000	          0.00000000	          0.00000000	         -0.00007686	          0.00000000	
          2.26500000	         -0.00000000	         -0.00000000	         -0.00000000	          0.00000000	          0.00000000	          0.00000000	          0.00472612	          0.03441272	          0.00290958	          0.00059210	          0.00000000	          0.00012921	          0.00000000	         -0.00000000	          0.00000000	          0.00000000	          0.00023148	          0.00000000	
          2.27000000	         -0.00000000	         -0.00000000	          0.00000000	          0.00000000	          0.00000000	          0.00000000	          0.00054671	          0.00575347	          0.00053875	          0.00019114	          0.00000000	          0.00004137	          0.00000000	         -0.00000000	          0.00000000	          0.00000000	          0.00007352	          0.00000000	
          2.27500000	          0.00000000	          0.00000000	          0.00000000	          0.00000000	          0.00000000	          0.00000000	         -0.00035890	         -0.00211410	         -0.00016402	         -0.00001043	          0.00000000	         -0.00000237	          0.00000000	          0.00000000	          0.00000000	          0.00000000	         -0.00000442	          0.00000000	
          2.28000000	          0.00000000	          0.00000000	          0.00000000	         -0.00000000	          0.00000000	         -0.00000000	         -0.00016039	         -0.00121963	         -0.00010465	         -0.00002368	          0.00000000	         -0.00000516	          0.00000000	          0.00000000	          0.00000000	          0.00000000	         -0.00000922	          0.00000000	
          2.28500000	          0.00000000	          0.00000000	         -0.00000000	         -0.00000000	          0.00000000	         -0.00000000	         -0.00000622	         -0.00011403	         -0.00001167	         -0.00000554	          0.00000000	         -0.00000119	          0.00000000	          0.00000000	          0.00000000	          0.00000000	         -0.00000212	          0.00000000	
          2.29000000	         -0.00000000	         -0.00000000	         -0.00000000	          0.00000000	          0.00000000	          0.00000000	          0.00001565	          0.00010024	          0.00000807	          0.00000101	          0.00000000	          0.00000022	          0.00000000	         -0.00000000	          0.00000000	          0.00000000	          0.00000040	          0.00000000	
          2.29500000	         -0.00000000	         -0.00000000	         -0.00000000	          0.00000000	          0.00000000	          0.00000000	          0.00000508	          0.00004060	          0.00000354	          0.00000089	          0.00000000	          0.00000019	          0.00000000	         -0.00000000	          0.00000000	          0.00000000	          0.00000034	          0.00000000	
          2.30000000	         -0.00000000	         -0.00000000	          0.00000000	          0.00000000	          0.00000000	          0.00000000	         -0.00000027	          0.00000056	          0.00000012	          0.00000014	          0.00000000	          0.00000003	          0.00000000	         -0.00000000	          0.00000000	          0.00000000	          0.00000005	          0.00000000	
          2.30500000	          0.00000000	          0.00000000	          0.00000000	         -0.00000000	          0.00000000	         -0.00000000	         -0.00000063	         -0.00000425	         -0.00000035	         -0.00000006	          0.00000000	         -0.00000001	          0.00000000	          0.00000000	          0.00000000	          0.00000000	         -0.00000002	          0.00000000	
          2.31000000	          0.00000000	          0.00000000	          0.00000000	         -0.00000000	          0.00000000	         -0.00000000	         -0.00000015	         -0.00000126	         -0.00000011	         -0.00000003	          0.00000000	         -0.00000001	          0.00000000	          0.00000000	          0.00000000	          0.00000000	         -0.00000001	          0.00000000	
          2.31500000	          0.00000000	          0.00000000	         -0.00000000	         -0.00000000	          0.00000000	         -0.00000000	          0.00000003	          0.00000011	          0.00000001	         -0.00000000	          0.00000000	         -0.00000000	          0.00000000	          0.00000000	          0.00000000	          0.00000000	         -0.00000000	          0.00000000	
          2.32000000	         -0.00000000	         -0.00000000	         -0.00000000	          0.00000000	          0.00000000	          0.00000000	          0.00000002	          0.00000017	          0.00000001	          0.00000000	          0.00000000	          0.00000000	          0.00000000	         -0.00000000	          0.00000000	          0.00000000	          0.00000000	          0.00000000	
          2.32500000	         -0.00000000	         -0.00000000	          0.00000000	          0.00000000	          0.00000000	          0.00000000	          0.00000000	          0.00000004	          0.00000000	          0.00000000	          0.00000000	          0.00000000	          0.00000000	         -0.00000000	          0.00000000	          0.00000000	          0.00000000	          0.00000000	
          2.33000000	          0.00000000	          0.00000000	          0.00000000	          0.00000000	          0.00000000	          0.00000000	         -0.00000000	         -0.00000001	         -0.00000000	          0.00000000	          0.00000000	          0.00000000	          0.00000000	          0.00000000	          0.00000000	          0.00000000	         -0.00000000	          0.00000000	
